<?xml version="1.0" encoding="UTF-8"?>
<svg version="1.1" xmlns="http://www.w3.org/2000/svg" width="512" height="512">
<path d="M0 0 C0.66257813 -0.02900391 1.32515625 -0.05800781 2.0078125 -0.08789062 C15.55807875 -0.25099568 29.09841241 5.96126077 41.60791016 10.56893921 C62.15214844 18.11609084 82.70510404 25.05087533 104.1875 29.4375 C115.14923584 31.70633874 123.68957876 35.93116387 130.125 45.3125 C135.47342607 54.45552805 136.92106019 64.74189747 134.453125 75.14453125 C133.625 77.3125 133.625 77.3125 132.125 80.3125 C139.40194078 77.63090325 146.04368419 74.31689091 152.75 70.4375 C153.7407251 69.87087646 154.7314502 69.30425293 155.75219727 68.72045898 C158.8815454 66.92645695 162.00433519 65.12155987 165.125 63.3125 C166.11967285 62.73612793 167.1143457 62.15975586 168.13916016 61.56591797 C174.13758199 58.08464705 180.12506294 54.58490368 186.10888672 51.07861328 C192.10358087 47.56836417 198.10509242 44.06974825 204.109375 40.57592773 C209.20976625 37.60611659 214.29894864 34.61939794 219.37109375 31.6015625 C264.8160398 4.63556422 264.8160398 4.63556422 289.29296875 10.0078125 C298.64219812 13.07693883 306.21215289 18.70414844 311.125 27.3125 C313.85596513 33.05226633 314.67390348 38.23979449 314.625 44.5625 C314.61968262 45.80604248 314.61968262 45.80604248 314.61425781 47.07470703 C314.35967734 56.56244148 311.39864465 64.15441296 305.125 71.3125 C298.60053572 76.87188727 290.76039372 80.98445888 283.41137695 85.3503418 C276.65284429 89.37124098 269.97131979 93.50380698 263.3125 97.6875 C254.4359178 103.26072096 245.51384133 108.75137824 236.55273438 114.1875 C229.42370119 118.51462336 222.32488244 122.88823088 215.23828125 127.28442383 C204.99867063 133.6355385 194.73275579 139.94378693 184.46875 146.25537109 C180.04710929 148.97563574 175.62769069 151.69949975 171.20825195 154.42333984 C167.96735427 156.41911546 164.72409299 158.41100326 161.48046875 160.40234375 C157.24402194 163.00394411 153.01898994 165.62285019 148.80078125 168.25390625 C146.78395164 169.5027616 144.76702862 170.7514661 142.75 172 C141.85385986 172.56412598 140.95771973 173.12825195 140.03442383 173.70947266 C119.81238775 186.17090437 100.96864309 188.34389375 78.125 183.3125 C71.2740195 181.6795743 64.48138027 179.81966727 57.68359375 177.98046875 C55.74388461 177.46050009 53.80402634 176.94108751 51.86402893 176.42219543 C46.79008071 175.06359998 41.71803612 173.69803358 36.64642334 172.33074951 C31.55112546 170.95817446 26.45422838 169.59156953 21.35742188 168.22460938 C19.86972117 167.82526184 19.86972117 167.82526184 18.3519659 167.41784668 C13.47619885 166.10921104 8.59975728 164.80319872 3.72181702 163.50268555 C-4.06316908 161.42499979 -11.84177981 159.34201491 -19.58227539 157.10351562 C-21.19542885 156.64782951 -21.19542885 156.64782951 -22.84117126 156.18293762 C-24.68956486 155.65853711 -26.53310197 155.11643132 -28.36915588 154.55033875 C-34.10633152 152.94692055 -36.96878731 153.51271835 -42.1875 156.4375 C-43.77278442 157.70109897 -45.34252611 158.98534786 -46.875 160.3125 C-47.535 160.3125 -48.195 160.3125 -48.875 160.3125 C-47.91787109 161.97925781 -47.91787109 161.97925781 -46.94140625 163.6796875 C-37.54620389 180.42077782 -37.54620389 180.42077782 -39.3359375 189.703125 C-42.03796064 199.30325426 -47.88893786 203.25279549 -56.26367188 208.02539062 C-57.44653571 208.68373548 -58.62947905 209.34193751 -59.8125 210 C-60.99213593 210.66886573 -62.17117788 211.33878016 -63.34960938 212.00976562 C-82.66581253 222.9391045 -82.66581253 222.9391045 -93.0625 220.1875 C-101.31449102 217.75158889 -104.82681822 212.24102967 -108.76953125 205.05273438 C-109.34058594 203.98345703 -109.91164063 202.91417969 -110.5 201.8125 C-111.74128981 199.54117584 -112.98349116 197.27034963 -114.2265625 195 C-114.84176758 193.86820313 -115.45697266 192.73640625 -116.09082031 191.5703125 C-118.62248851 186.94762771 -121.24309481 182.3786114 -123.875 177.8125 C-128.25902312 170.17382739 -132.58023894 162.50168733 -136.875 154.8125 C-141.67306155 146.22332081 -146.51381254 137.66074194 -151.40625 129.125 C-155.63289177 121.74799659 -159.81796066 114.34797572 -163.9934082 106.94189453 C-166.75388788 102.04985244 -169.52795425 97.16632447 -172.328125 92.296875 C-172.88177734 91.33330078 -173.43542969 90.36972656 -174.00585938 89.37695312 C-175.06209684 87.54096014 -176.12058667 85.70626054 -177.18164062 83.87304688 C-177.65279297 83.05384766 -178.12394531 82.23464844 -178.609375 81.390625 C-179.23150879 80.31409668 -179.23150879 80.31409668 -179.86621094 79.21582031 C-183.04694316 73.21461304 -182.90397331 65.3759615 -181.26171875 58.890625 C-177.09298235 49.41455459 -165.85299001 44.81336775 -157.3125 40.0625 C-156.21486328 39.43859375 -155.11722656 38.8146875 -153.98632812 38.171875 C-145.09382342 33.19764693 -138.1508983 29.88893908 -127.875 32.3125 C-118.82012157 35.79765105 -114.5934514 44.37756671 -109.875 52.3125 C-99.96368308 46.88129856 -90.12958232 41.3333559 -80.375 35.625 C-79.3746875 35.04008789 -78.374375 34.45517578 -77.34375 33.85253906 C-73.06977576 31.35264188 -68.79628092 28.85192716 -64.5234375 26.35009766 C-19.9215476 0.27465369 -19.9215476 0.27465369 0 0 Z M-72.375 50.66015625 C-75.97369931 52.79876876 -79.60773483 54.87010715 -83.25 56.93359375 C-84.90793579 57.88008789 -84.90793579 57.88008789 -86.59936523 58.84570312 C-88.79696662 60.09936295 -90.99951147 61.34440289 -93.20727539 62.58007812 C-94.69988892 63.43569336 -94.69988892 63.43569336 -96.22265625 64.30859375 C-97.11992432 64.81575928 -98.01719238 65.3229248 -98.94165039 65.84545898 C-99.57965576 66.32958252 -100.21766113 66.81370605 -100.875 67.3125 C-100.875 70.64767746 -100.25817459 71.80624308 -98.671875 74.6796875 C-98.19242432 75.55423584 -97.71297363 76.42878418 -97.21899414 77.32983398 C-96.69297607 78.27286377 -96.16695801 79.21589355 -95.625 80.1875 C-94.81180298 81.66101929 -94.81180298 81.66101929 -93.98217773 83.16430664 C-89.38775358 91.46136254 -84.69231015 99.70009371 -79.96484375 107.921875 C-76.07140412 114.69809005 -72.24061203 121.50967523 -68.41430664 128.32397461 C-65.00168058 134.3827051 -61.483427 140.36831107 -57.875 146.3125 C-56.91078125 145.75820313 -55.9465625 145.20390625 -54.953125 144.6328125 C-53.67711639 143.90098403 -52.40107288 143.1692164 -51.125 142.4375 C-50.49078125 142.07269531 -49.8565625 141.70789063 -49.203125 141.33203125 C-47.43181444 140.31721791 -45.65360478 139.31447418 -43.875 138.3125 C-43.2315051 137.94735479 -42.5880102 137.58220959 -41.92501545 137.20599937 C-35.98773947 134.61823723 -28.90906828 136.48925727 -22.92895508 138.17333984 C-22.18888718 138.37185547 -21.44881927 138.57037109 -20.68632507 138.77490234 C-18.25271558 139.43048399 -15.82378341 140.101907 -13.39453125 140.7734375 C-11.66024645 141.24375442 -9.92567659 141.71302126 -8.19084167 142.18130493 C-3.61112713 143.42031356 0.96485856 144.67256772 5.5401001 145.92797852 C10.05018468 147.16355284 14.56318078 148.38837353 19.07617188 149.61328125 C20.86411022 150.09871613 22.65204357 150.58416942 24.43997192 151.06964111 C25.32365574 151.30956032 26.20733955 151.54947952 27.11780167 151.79666901 C29.79060061 152.52279414 32.46306722 153.25013142 35.13546753 153.97772217 C46.71791581 157.12934515 58.30887077 160.24732893 69.91439247 163.31297684 C71.57089422 163.75067522 73.22715891 164.1892719 74.88316917 164.62882614 C77.16526254 165.23410283 79.44830101 165.83566517 81.73168945 166.43603516 C82.39588961 166.61267323 83.06008976 166.78931129 83.74441719 166.97130203 C98.50808881 170.83047623 112.18455355 169.58156228 125.7734375 162.28515625 C131.56071643 158.87889068 137.21809673 155.27590437 142.87109375 151.65234375 C148.36298615 148.14147392 153.92491153 144.75171269 159.5 141.375 C166.83295218 136.92824131 174.15015821 132.45865484 181.4375 127.9375 C189.21978554 123.10966217 197.01187323 118.29815421 204.8125 113.5 C205.90409424 112.82855957 206.99568848 112.15711914 208.12036133 111.46533203 C210.34500824 110.09709668 212.56969921 108.72893296 214.79443359 107.36083984 C220.23867567 104.01256312 225.68180305 100.66247538 231.125 97.3125 C238.79379276 92.59279811 246.46307476 87.87389628 254.1340332 83.15771484 C256.31705618 81.81444019 258.49920202 80.46973891 260.68041992 79.12353516 C265.85421042 75.93108697 271.03724705 72.75739879 276.25 69.62890625 C277.21123779 69.04713623 278.17247559 68.46536621 279.1628418 67.8659668 C280.95069785 66.78444367 282.74349876 65.71103227 284.54223633 64.64770508 C290.23081882 61.18946562 294.9359452 57.8796644 297.125 51.3125 C297.80132303 44.24975517 298.16614218 37.75685307 293.72265625 31.90234375 C289.24761342 27.44918377 284.75267662 26.07892563 278.5 25.8125 C255.80139679 26.72271968 235.05263824 42.24219411 216.125 53.3125 C214.07058107 54.50957562 212.015902 55.70620493 209.9609375 56.90234375 C202.99799025 60.95739349 196.04074848 65.02218028 189.08544922 69.09033203 C183.07480031 72.60574109 177.05998891 76.11382254 171.04003906 79.61328125 C168.13399843 81.30725468 165.23488586 83.01267506 162.3359375 84.71875 C160.49506144 85.79212946 158.65392711 86.86506615 156.8125 87.9375 C155.99563721 88.42234863 155.17877441 88.90719727 154.3371582 89.40673828 C129.06574825 104.03578676 102.95370485 99.53779528 75.95288086 92.52441406 C70.89159493 91.16991723 65.84401247 89.77077815 60.80175781 88.34716797 C57.21420678 87.33760348 53.61990602 86.35615286 50.0234375 85.37890625 C47.84852569 84.77499346 45.67402318 84.16960399 43.5 83.5625 C42.50484375 83.29332764 41.5096875 83.02415527 40.484375 82.74682617 C31.88626866 80.28622373 31.88626866 80.28622373 29.125 76.3125 C28.63608343 72.95992924 28.76689396 71.04860685 30.25 68 C32.92545918 65.59208674 34.50264274 65.54389938 38.125 65.3125 C41.7974698 65.95373174 45.34681279 66.96719336 48.9296875 67.98828125 C49.96763458 68.27350143 51.00558167 68.55872162 52.07498169 68.85258484 C55.38662488 69.76524547 58.69327424 70.69469755 62 71.625 C64.21713039 72.24007802 66.43457553 72.85402264 68.65234375 73.46679688 C71.78745681 74.33318537 74.92202566 75.20113305 78.0541687 76.07820129 C94.21856919 80.93368787 94.21856919 80.93368787 110.6875 79.125 C114.40101979 76.36366477 116.6581485 73.7130545 118.125 69.3125 C118.64078753 64.39983521 118.69944169 60.4834773 116.5 56 C111.81644658 50.70018955 108.33385741 47.91131915 101.375 46.4375 C99.93822475 46.10928798 98.50206727 45.77836457 97.06640625 45.4453125 C96.27766113 45.26645508 95.48891602 45.08759766 94.67626953 44.90332031 C78.98910051 41.27050222 63.7027474 36.64008103 48.5 31.375 C47.75348175 31.11690552 47.0069635 30.85881104 46.23782349 30.59289551 C38.8155902 28.0232004 31.40799619 25.41617528 24.015625 22.76171875 C-12.72840738 9.73573228 -41.29434083 32.12794303 -72.375 50.66015625 Z M-141.33984375 50.8203125 C-142.38720703 51.39523437 -143.43457031 51.97015625 -144.51367188 52.5625 C-145.60228516 53.18125 -146.69089844 53.8 -147.8125 54.4375 C-148.89724609 55.03304687 -149.98199219 55.62859375 -151.09960938 56.2421875 C-158.3586219 60.23643707 -158.3586219 60.23643707 -164.875 65.3125 C-165.32897875 72.22899978 -161.05182635 77.96344827 -157.6875 83.75 C-157.06182129 84.84675049 -156.43614258 85.94350098 -155.79150391 87.07348633 C-150.92218929 95.58351816 -145.95753651 104.03903657 -140.99194336 112.49316406 C-136.59913704 119.99695151 -132.40171081 127.5924996 -128.26855469 135.24169922 C-124.45643859 142.28538686 -120.51833131 149.24853506 -116.52392578 156.19018555 C-113.12094568 162.11079509 -109.77478225 168.06068017 -106.45410156 174.02783203 C-99.97127341 185.70722101 -99.97127341 185.70722101 -93.25 197.25 C-92.68023437 198.20777344 -92.11046875 199.16554688 -91.5234375 200.15234375 C-89.73308472 202.49846956 -88.73897338 203.57237205 -85.875 204.3125 C-83.51922957 203.55045113 -83.51922957 203.55045113 -81.125 202 C-80.17109375 201.44054687 -79.2171875 200.88109375 -78.234375 200.3046875 C-77.12578125 199.64726562 -76.0171875 198.98984375 -74.875 198.3125 C-73.48700353 197.53953186 -72.09622444 196.77154536 -70.703125 196.0078125 C-69.26041592 195.21354302 -67.81770759 194.41927219 -66.375 193.625 C-65.33327637 193.05495239 -65.33327637 193.05495239 -64.27050781 192.47338867 C-61.06590321 190.68505569 -58.38280955 188.98537213 -55.875 186.3125 C-57.20822038 181.93267871 -58.92610454 178.11988148 -61.1484375 174.12109375 C-61.46806961 173.54304489 -61.78770172 172.96499603 -62.11701965 172.36943054 C-63.1562761 170.49341943 -64.20290623 168.62164624 -65.25 166.75 C-65.97856179 165.43945171 -66.70683038 164.12874039 -67.43481445 162.81787109 C-72.53904925 153.64149922 -77.72035136 144.50991513 -82.953125 135.40625 C-86.09920359 129.93147725 -89.20812656 124.43600247 -92.3125 118.9375 C-92.85503418 117.97690674 -93.39756836 117.01631348 -93.95654297 116.02661133 C-96.12400295 112.18803906 -98.29045652 108.34890029 -100.45605469 104.50927734 C-106.739696 93.36902727 -113.03877612 82.23752559 -119.37020874 71.12435913 C-120.07394028 69.88847752 -120.77693991 68.65217882 -121.47915649 67.41543579 C-122.46442777 65.6806849 -123.45286629 63.94773408 -124.44140625 62.21484375 C-125.00802979 61.21960693 -125.57465332 60.22437012 -126.15844727 59.19897461 C-129.35899823 53.49269956 -129.35899823 53.49269956 -133.78344727 48.78076172 C-136.95908576 48.06979234 -138.53503848 49.26100681 -141.33984375 50.8203125 Z " fill="#000000" transform="translate(189.875,279.6875)"/>
<path d="M0 0 C0.86777573 -0.01591187 1.73555145 -0.03182373 2.62962341 -0.04821777 C3.56403763 -0.04841919 4.49845184 -0.04862061 5.46118164 -0.04882812 C6.42407608 -0.05644165 7.38697052 -0.06405518 8.37904358 -0.07189941 C10.41575527 -0.08270627 12.45252241 -0.08555115 14.48925781 -0.08105469 C17.60649009 -0.08008275 20.72125831 -0.12168934 23.83813477 -0.16601562 C25.81664525 -0.17122284 27.7951643 -0.17391082 29.77368164 -0.17382812 C31.17226662 -0.19842102 31.17226662 -0.19842102 32.59910583 -0.22351074 C39.04618545 -0.15462699 39.04618545 -0.15462699 42.22485352 2.70947266 C43.45755188 4.99953579 44.34500606 6.86921455 44.93774414 9.38085938 C47.1804714 17.67554539 47.1804714 17.67554539 52.78198242 23.84179688 C57.54937422 26.10212308 62.52128148 27.49222265 67.62231445 28.78613281 C69.68383789 29.41992188 69.68383789 29.41992188 72.45727539 31.14648438 C74.60150682 32.63875105 74.60150682 32.63875105 77.06274414 32.29882812 C81.59899173 30.77773169 85.87328025 28.70336801 90.21118164 26.69726562 C95.81801774 24.63490859 95.81801774 24.63490859 99.68383789 25.41992188 C102.65405139 27.43463856 105.12307259 29.91641389 107.68383789 32.41992188 C109.01995117 33.66298096 109.01995117 33.66298096 110.38305664 34.93115234 C112.84532378 37.23101286 115.27513009 39.55561753 117.68676758 41.90795898 C118.69134506 42.88059051 119.70388025 43.84506464 120.72387695 44.80151367 C130.31823641 53.80961919 130.31823641 53.80961919 130.58618164 58.60742188 C129.71895745 62.27153794 128.58841858 65.10846099 126.83740234 68.40576172 C123.49967455 74.62644633 123.49967455 74.62644633 122.97485352 81.48486328 C124.11765031 84.9124109 125.81507242 87.89627759 127.68383789 90.97460938 C129.6093276 94.29156626 130.26870096 96.71099475 130.99633789 100.41992188 C131.96385849 103.3706408 132.81856606 104.92632414 135.54467773 106.48144531 C138.68713769 107.87186592 141.8515466 109.03753101 145.13427734 110.05273438 C146.30349731 110.41625 146.30349731 110.41625 147.49633789 110.78710938 C148.55788086 111.08270752 148.55788086 111.08270752 149.64086914 111.38427734 C152.69032027 112.93013916 153.92624566 114.47516061 155.68383789 117.41992188 C156.24301175 120.44766792 156.22133736 123.41049233 156.17993164 126.48242188 C156.18138687 127.35133057 156.1828421 128.22023926 156.18434143 129.11547852 C156.18268561 130.94778811 156.17115977 132.78011206 156.15039062 134.61230469 C156.1214327 137.4107596 156.12978864 140.20731897 156.14282227 143.00585938 C156.13658435 144.78972271 156.12819299 146.57358009 156.11743164 148.35742188 C156.12036728 149.19088135 156.12330292 150.02434082 156.12632751 150.88305664 C156.05146578 155.51206194 155.76903496 158.71882594 152.68383789 162.41992188 C150.83032227 163.63012695 150.83032227 163.63012695 148.77758789 164.43945312 C147.6619043 164.88901367 147.6619043 164.88901367 146.52368164 165.34765625 C145.7515332 165.63962891 144.97938477 165.93160156 144.18383789 166.23242188 C143.41168945 166.54373047 142.63954102 166.85503906 141.84399414 167.17578125 C136.15226165 169.41992188 136.15226165 169.41992188 132.68383789 169.41992188 C132.47758789 170.61617187 132.27133789 171.81242188 132.05883789 173.04492188 C130.41195374 180.56330603 127.07684952 188.20207176 123.28540039 194.88476562 C122.36593243 198.75966633 124.23232538 201.41179527 126.05883789 204.73242188 C128.83341116 209.79653962 131.2971526 214.56566956 129.68383789 220.41992188 C127.7444729 223.48365353 125.25792714 225.88321214 122.68383789 228.41992188 C120.99490621 230.19974683 119.30611241 231.97970262 117.61743164 233.75976562 C115.78819816 235.62839394 113.95611609 237.49423754 112.12133789 239.35742188 C111.66025635 239.83735596 111.1991748 240.31729004 110.72412109 240.81176758 C109.36759625 242.2230967 107.99270305 243.61669775 106.61743164 245.00976562 C105.81362061 245.833396 105.00980957 246.65702637 104.18164062 247.50561523 C101.25032236 249.75216655 99.34334823 250.20960873 95.68383789 250.41992188 C92.39477539 249.49414062 92.39477539 249.49414062 89.05883789 248.10742188 C87.95282227 247.65753906 86.84680664 247.20765625 85.70727539 246.74414062 C82.68383789 245.41992188 82.68383789 245.41992188 80.66040039 244.18945312 C76.67645682 242.63839209 73.14748577 244.23348433 69.35180664 245.75976562 C68.20325195 246.28699219 67.05469727 246.81421875 65.87133789 247.35742188 C60.52671383 249.75250546 55.46132026 251.42380423 49.68383789 252.41992188 C49.51368164 253.02578125 49.34352539 253.63164062 49.16821289 254.25585938 C47.84105686 258.84443076 46.41446924 263.38050019 44.74633789 267.85742188 C44.44856445 268.66050781 44.15079102 269.46359375 43.84399414 270.29101562 C42.35991404 273.0143276 41.42480195 273.898317 38.68383789 275.41992188 C35.55296977 275.89247013 32.44348117 275.8879501 29.28149414 275.88867188 C28.36677841 275.8962854 27.45206268 275.90389893 26.5096283 275.91174316 C24.57724738 275.9225368 22.64480816 275.92540026 20.71240234 275.92089844 C17.75983149 275.91992632 14.80986157 275.96155059 11.85766602 276.00585938 C9.97811413 276.01106675 8.09855323 276.01375456 6.21899414 276.01367188 C5.33865005 276.03006714 4.45830597 276.0464624 3.55128479 276.06335449 C-0.82900937 276.01410207 -2.7288402 275.87117927 -6.29956055 273.12768555 C-7.97722572 270.87502399 -9.18335273 269.11968112 -10.11694336 266.50195312 C-10.3715332 265.80521484 -10.62612305 265.10847656 -10.88842773 264.390625 C-11.13270508 263.67841797 -11.37698242 262.96621094 -11.62866211 262.23242188 C-11.89227539 261.50861328 -12.15588867 260.78480469 -12.42749023 260.0390625 C-14.31616211 254.76549817 -14.31616211 254.76549817 -14.31616211 252.41992188 C-15.47116211 252.23429688 -16.62616211 252.04867187 -17.81616211 251.85742188 C-25.99345223 250.07804354 -33.86120535 246.14740025 -41.31616211 242.41992188 C-43.19089422 243.05079455 -43.19089422 243.05079455 -45.23803711 244.10742188 C-46.01663086 244.47609375 -46.79522461 244.84476563 -47.59741211 245.22460938 C-49.23059925 246.01536138 -50.86087753 246.81215239 -52.48803711 247.61523438 C-55.89678072 249.21868943 -58.61007644 250.37691158 -62.39428711 250.60742188 C-66.87953694 248.78453959 -69.87779292 245.77231298 -73.31616211 242.41992188 C-74.13971191 241.62247559 -74.96326172 240.8250293 -75.81176758 240.00341797 C-78.47902703 237.39072399 -81.11933513 234.75329448 -83.75366211 232.10742188 C-84.6630957 231.20185547 -85.5725293 230.29628906 -86.50952148 229.36328125 C-87.8040625 228.06680664 -87.8040625 228.06680664 -89.12475586 226.74414062 C-89.9064917 225.96127686 -90.68822754 225.17841309 -91.49365234 224.37182617 C-93.88156233 221.81437937 -94.27819223 220.82989391 -94.60522461 217.29882812 C-94.20529418 211.93219415 -92.06066874 208.01839339 -89.62866211 203.29296875 C-87.95069638 199.79944409 -87.1698283 198.14889768 -87.95288086 194.24804688 C-88.40276367 193.31476563 -88.85264648 192.38148438 -89.31616211 191.41992188 C-89.90204102 190.13021484 -89.90204102 190.13021484 -90.49975586 188.81445312 C-90.91354492 187.96238281 -91.32733398 187.1103125 -91.75366211 186.23242188 C-94.29021444 180.76907839 -95.92459968 175.2690095 -97.31616211 169.41992188 C-97.98389648 169.31164062 -98.65163086 169.20335937 -99.33959961 169.09179688 C-103.00429147 168.26459609 -106.44586128 167.02162024 -109.94116211 165.66992188 C-110.60889648 165.43015625 -111.27663086 165.19039062 -111.96459961 164.94335938 C-116.45603556 163.20068223 -118.36337305 161.79771462 -120.31616211 157.41992188 C-120.7398059 154.46788449 -120.73688562 151.55458864 -120.71459961 148.57617188 C-120.71746979 147.72945923 -120.72033997 146.88274658 -120.72329712 146.01037598 C-120.72533314 144.22517221 -120.71983561 142.4399459 -120.70727539 140.65478516 C-120.69121473 137.9288525 -120.70713929 135.2044024 -120.72631836 132.47851562 C-120.72433585 130.74023112 -120.720492 129.00194753 -120.71459961 127.26367188 C-120.7206723 126.45208618 -120.726745 125.64050049 -120.73300171 124.80432129 C-120.67589501 120.1888348 -120.28065513 117.18349168 -117.31616211 113.41992188 C-115.44116211 112.23242188 -115.44116211 112.23242188 -113.31616211 111.41992188 C-112.5259668 111.08347656 -111.73577148 110.74703125 -110.92163086 110.40039062 C-108.31616211 109.41992188 -108.31616211 109.41992188 -105.49194336 108.65820312 C-101.64120901 107.41314986 -98.42472274 106.34053008 -96.31030273 102.67724609 C-94.44056446 98.36095735 -93.2028579 93.88829221 -91.94799805 89.36376953 C-91.15799054 86.93330595 -89.90074377 84.98611139 -88.50366211 82.85742188 C-87.36168409 80.5138445 -87.11155695 79.12641033 -87.84008789 76.61083984 C-88.95358147 73.74649252 -90.20367022 70.99198295 -91.62158203 68.26538086 C-93.92133531 63.81684879 -95.29522056 60.53151776 -94.31616211 55.41992188 C-92.3439526 52.39360734 -89.87176347 49.95878714 -87.31616211 47.41992188 C-86.48648926 46.56672363 -85.65681641 45.71352539 -84.80200195 44.83447266 C-82.05789506 42.02767176 -79.28503072 39.25227343 -76.50366211 36.48242188 C-75.54060298 35.51579285 -74.5777113 34.54899697 -73.61499023 33.58203125 C-72.25083984 32.21981445 -72.25083984 32.21981445 -70.85913086 30.83007812 C-70.03437256 30.00644775 -69.20961426 29.18281738 -68.35986328 28.33422852 C-65.9682848 26.09407001 -64.94863741 25.48873066 -61.69506836 25.13476562 C-56.63026638 25.56219978 -52.66056414 27.79573202 -48.15014648 30.01953125 C-44.10355047 31.94001694 -44.10355047 31.94001694 -39.70678711 32.31054688 C-35.56350098 30.76696969 -31.6406151 28.85790283 -27.67163086 26.91601562 C-24.31616211 25.41992188 -24.31616211 25.41992188 -21.49194336 24.76757812 C-18.41670055 24.04703884 -16.75851703 23.46737934 -14.31616211 21.41992188 C-11.49895886 16.39693062 -9.78953705 10.84511766 -8.140625 5.34936523 C-6.41173549 1.30334398 -4.32811938 0.04776234 0 0 Z M5.68383789 17.41992188 C3.54687928 22.87432528 3.54687928 22.87432528 1.43676758 28.33911133 C-1.4450589 35.51404653 -1.4450589 35.51404653 -5.31616211 37.41992188 C-8.09697342 38.44843594 -10.915769 39.31376799 -13.75366211 40.16992188 C-19.72855698 42.03955954 -25.01979051 44.15522953 -30.44116211 47.29492188 C-37.85904697 51.44265575 -37.85904697 51.44265575 -42.07788086 51.07226562 C-46.63252623 49.74482099 -50.89681201 47.62375107 -55.14428711 45.53710938 C-58.1269371 44.1037917 -58.1269371 44.1037917 -60.31005859 45.17333984 C-63.6565569 47.25283605 -66.31776445 49.92952656 -69.12866211 52.66992188 C-70.04421875 53.51103516 -70.04421875 53.51103516 -70.97827148 54.36914062 C-74.56712811 57.77694733 -74.56712811 57.77694733 -75.36303711 62.50195312 C-73.98031579 66.35603084 -72.24367031 69.90377986 -70.37475586 73.54101562 C-68.56759876 78.45568273 -68.65658719 81.99195893 -70.85522461 86.75195312 C-71.54039429 87.91812829 -72.23626694 89.07806283 -72.94116211 90.23242188 C-76.69981951 96.75221792 -79.18795482 103.31044147 -81.32446289 110.5168457 C-82.46439533 114.27395295 -83.27182601 116.90149518 -86.31616211 119.41992188 C-88.10961914 120.29541016 -88.10961914 120.29541016 -90.07397461 120.99023438 C-90.78166992 121.24675781 -91.48936523 121.50328125 -92.21850586 121.76757812 C-92.95198242 122.02410156 -93.68545898 122.280625 -94.44116211 122.54492188 C-99.2382112 123.90735607 -99.2382112 123.90735607 -103.31616211 126.41992188 C-103.40330042 128.12764545 -103.42316218 129.83890836 -103.41381836 131.54882812 C-103.4105957 132.58330078 -103.40737305 133.61777344 -103.40405273 134.68359375 C-103.39148438 136.31651367 -103.39148438 136.31651367 -103.37866211 137.98242188 C-103.37415039 139.07490234 -103.36963867 140.16738281 -103.36499023 141.29296875 C-103.35316037 144.00200683 -103.33667754 146.71093787 -103.31616211 149.41992188 C-102.76154297 149.60466064 -102.20692383 149.78939941 -101.63549805 149.97973633 C-85.9263704 155.38529248 -85.9263704 155.38529248 -82.37475586 159.87304688 C-81.42927728 162.70524281 -80.87980026 165.48827147 -80.31616211 168.41992188 C-79.38176509 170.99356454 -78.41727328 173.51537571 -77.37866211 176.04492188 C-77.12415283 176.68824463 -76.86964355 177.33156738 -76.60742188 177.99438477 C-74.85030698 182.36948292 -72.80076908 186.36768494 -70.19897461 190.29492188 C-68.36716476 194.70423408 -68.93528972 198.46277301 -70.66381836 202.80664062 C-71.2297168 203.89589844 -71.79561523 204.98515625 -72.37866211 206.10742188 C-74.64695412 210.04312371 -74.64695412 210.04312371 -75.10327148 214.37719727 C-74.13168214 216.89868859 -72.8696078 218.20815969 -70.93725586 220.09179688 C-70.2637207 220.75566406 -69.59018555 221.41953125 -68.89624023 222.10351562 C-68.18918945 222.78542969 -67.48213867 223.46734375 -66.75366211 224.16992188 C-66.04274414 224.86730469 -65.33182617 225.5646875 -64.59936523 226.28320312 C-62.84485497 228.00238768 -61.08372859 229.71418059 -59.31616211 231.41992188 C-57.59719727 230.64455078 -57.59719727 230.64455078 -55.84350586 229.85351562 C-54.31394374 229.18726464 -52.78397383 228.5219493 -51.25366211 227.85742188 C-50.50149414 227.51517578 -49.74932617 227.17292969 -48.97436523 226.8203125 C-44.00096587 224.68885563 -40.70696396 223.92213307 -35.31616211 225.41992188 C-32.77440935 226.5800465 -30.38082875 227.76787016 -27.94116211 229.10742188 C-22.84124207 231.83660748 -17.93034479 233.94417723 -12.37670898 235.56713867 C-3.26131716 238.26473236 -3.26131716 238.26473236 -0.24194336 241.95507812 C1.04795412 244.77116062 1.89084279 247.42852452 2.68383789 250.41992188 C4.16883789 254.37992187 4.16883789 254.37992187 5.68383789 258.41992188 C13.60383789 258.41992188 21.52383789 258.41992188 29.68383789 258.41992188 C30.59133789 255.42929687 31.49883789 252.43867188 32.43383789 249.35742188 C34.51321581 243.76710152 36.5121892 239.46733838 42.10571289 236.88085938 C46.36155997 235.34571005 50.73719682 234.28068584 55.12280273 233.18408203 C59.8781929 231.76517153 64.12001546 229.29969242 68.39477539 226.81762695 C72.94495791 224.32325719 75.68944971 224.12693027 80.68383789 225.41992188 C83.22462432 226.318708 85.67008643 227.3644437 88.12133789 228.48242188 C88.75749023 228.76408203 89.39364258 229.04574219 90.04907227 229.3359375 C91.5974684 230.02281999 93.14117146 230.72026595 94.68383789 231.41992188 C97.39558761 228.88208802 100.07342322 226.31107759 102.74633789 223.73242188 C103.5178418 223.01119141 104.2893457 222.28996094 105.08422852 221.546875 C105.80932617 220.84111328 106.53442383 220.13535156 107.28149414 219.40820312 C107.95704346 218.76407471 108.63259277 218.11994629 109.32861328 217.45629883 C110.955449 215.46870088 110.955449 215.46870088 110.47094727 212.85205078 C109.19708379 208.91587586 107.4554118 205.21587025 105.74243164 201.45507812 C104.07354994 196.67012947 104.02850823 193.79711212 106.22290039 189.18554688 C106.91023848 188.00897693 107.60602854 186.8373162 108.30883789 185.66992188 C112.05334462 179.12806304 114.55195521 172.54129251 116.69213867 165.32324219 C117.83328615 161.56171289 118.64033223 158.94266376 121.68383789 156.41992188 C123.58496094 155.43676758 123.58496094 155.43676758 125.69555664 154.59570312 C126.37835693 154.31895752 127.06115723 154.04221191 127.76464844 153.75708008 C128.62485596 153.41894287 129.48506348 153.08080566 130.37133789 152.73242188 C133.11446289 151.63929688 135.85758789 150.54617187 138.68383789 149.41992188 C138.68383789 141.82992187 138.68383789 134.23992187 138.68383789 126.41992188 C132.72243437 123.75657331 132.72243437 123.75657331 126.72290039 121.18164062 C122.71956309 119.40022031 120.21089397 118.27411621 117.87133789 114.48242188 C117.44886283 113.13632893 117.05803896 111.78022513 116.68383789 110.41992188 C115.9500506 108.22693021 115.19799074 106.04001819 114.43383789 103.85742188 C114.01231445 102.64957031 113.59079102 101.44171875 113.15649414 100.19726562 C111.25596781 95.08536776 108.65558862 90.35130488 106.03930664 85.57617188 C104.54596107 82.09887152 104.19769164 80.15838654 104.68383789 76.41992188 C106.095692 73.01101036 107.76880768 69.81416371 109.46899414 66.54101562 C110.80336444 63.59710056 110.80336444 63.59710056 110.80883789 60.97460938 C108.99994758 56.86692095 105.84280951 54.16514322 102.62133789 51.10742188 C101.95811523 50.46224609 101.29489258 49.81707031 100.61157227 49.15234375 C98.97766118 47.56545169 97.33515642 45.9886586 95.68383789 44.41992188 C94.25712225 44.88188979 92.8315646 45.34743485 91.40649414 45.81445312 C90.61251221 46.07331299 89.81853027 46.33217285 89.00048828 46.59887695 C86.43479268 47.46403003 86.43479268 47.46403003 83.12133789 49.10742188 C77.55409098 51.23309797 73.40338255 51.13837426 68.00024414 48.88085938 C66.74168998 48.19876128 65.49056623 47.50281468 64.24633789 46.79492188 C57.74219274 43.28892088 51.24557946 40.66124971 44.18017578 38.49951172 C40.09026493 37.18547238 37.71337928 36.27084656 35.68383789 32.41992188 C34.53027955 29.86801254 33.49768019 27.28486704 32.49633789 24.66992188 C31.10415039 21.08117187 31.10415039 21.08117187 29.68383789 17.41992188 C21.76383789 17.41992188 13.84383789 17.41992188 5.68383789 17.41992188 Z " fill="#000000" transform="translate(331.316162109375,24.580078125)"/>
<path d="M0 0 C14.33695191 13.576659 24.05113062 32.53388665 24.78125 52.47265625 C25.19312234 75.94937935 18.1809049 95.8500241 1.9765625 113.1328125 C-13.84633495 128.36299555 -33.66356127 135.14854736 -55.27392578 134.90991211 C-74.16586546 134.28171165 -91.43232422 127.20426134 -105.421875 114.44140625 C-106.33453125 113.66603516 -106.33453125 113.66603516 -107.265625 112.875 C-116.2901707 104.69137787 -122.49763202 92.81401631 -126.421875 81.44140625 C-126.89947266 80.15169922 -126.89947266 80.15169922 -127.38671875 78.8359375 C-133.43294745 59.52701359 -129.76053957 37.75324869 -120.69506836 20.10571289 C-110.99545321 2.2932095 -94.92922211 -10.33160793 -75.7421875 -16.59375 C-48.88289401 -24.3987447 -21.45843078 -17.78080664 0 0 Z M-96.421875 16.44140625 C-96.97488281 16.95960937 -97.52789062 17.4778125 -98.09765625 18.01171875 C-101.86820324 21.89406093 -104.22382467 26.54078267 -106.671875 31.31640625 C-107.0136377 31.97648682 -107.35540039 32.63656738 -107.70751953 33.31665039 C-113.80880222 45.71833585 -114.60751601 61.28504848 -110.734375 74.50390625 C-110.00770978 76.49971245 -109.2393626 78.48104946 -108.421875 80.44140625 C-107.8959375 81.74271484 -107.8959375 81.74271484 -107.359375 83.0703125 C-100.19835591 98.9588236 -86.83243611 109.03357022 -71.01953125 115.41015625 C-55.87314957 120.4511708 -39.46400537 118.00834295 -25.359375 111.31640625 C-11.49947043 104.31800768 -0.6128088 92.07040151 4.578125 77.44140625 C9.48081232 61.78443706 8.8784378 46.0837782 1.828125 31.19140625 C-6.52206651 15.61666179 -18.85923809 5.01107168 -35.6796875 -0.65625 C-58.64784816 -6.72277892 -79.87974799 -0.01288646 -96.421875 16.44140625 Z " fill="#000000" transform="translate(401.421875,103.55859375)"/>
<path d="M0 0 C5.84086892 4.2622557 7.47050263 10.57457231 9.8125 17.1875 C10.21919922 18.29287109 10.62589844 19.39824219 11.04492188 20.53710938 C14 28.65736607 14 28.65736607 14 31 C14.71542969 31.01981934 15.43085938 31.03963867 16.16796875 31.06005859 C19.4456486 31.15599327 22.72275001 31.26539298 26 31.375 C27.68802734 31.42140625 27.68802734 31.42140625 29.41015625 31.46875 C44.57686702 32.00091529 44.57686702 32.00091529 49.5 36.0625 C51.51635899 40.01120302 52.01202658 43.65423882 51 48 C48.08919457 52.43381853 44.2318607 55.39484029 40.0625 58.5625 C37.35708672 60.64821395 37.35708672 60.64821395 34.66455078 62.75048828 C33 64 33 64 29.99609375 65.83984375 C27.58328708 67.95737263 27.58328708 67.95737263 28.0234375 71.65625 C29.10239625 77.1658266 30.73871626 82.56300653 32.359375 87.93359375 C33.90063596 93.39886967 34.25444537 97.42468722 33 103 C29.86900323 106.6655572 28.09676536 107.87646959 23.2890625 108.41796875 C18.28178195 108.28330565 14.97987914 106.07668748 10.9375 103.3125 C9.93493164 102.65991211 9.93493164 102.65991211 8.91210938 101.99414062 C6.2378819 100.23990977 3.61065009 98.49350432 1.12158203 96.48193359 C-0.86365175 94.8401082 -0.86365175 94.8401082 -4 93 C-7.54457721 94.02213055 -10.48464901 95.80226861 -13.57421875 97.78515625 C-14.40630859 98.31560547 -15.23839844 98.84605469 -16.09570312 99.39257812 C-16.95099609 99.94365234 -17.80628906 100.49472656 -18.6875 101.0625 C-20.39926939 102.15828694 -22.11148708 103.25337399 -23.82421875 104.34765625 C-24.95476685 105.07480835 -24.95476685 105.07480835 -26.1081543 105.81665039 C-29.99779473 108.24962073 -33.47433391 108.62542794 -38 108 C-42.05897162 105.61756014 -43.60679828 103.42815758 -45 99 C-44.70400134 89.07533911 -40.59308503 78.5508666 -38 69 C-39.97715727 67.31009587 -41.95627194 65.62262284 -43.9375 63.9375 C-44.52635986 63.43597412 -45.11521973 62.93444824 -45.72192383 62.41772461 C-49.80041145 58.96319508 -53.9649534 55.67477406 -58.29296875 52.53515625 C-61.49059116 49.65949124 -61.96964195 47.31875949 -62.375 43.0625 C-62.2749291 40.07705134 -61.9328862 38.87136522 -60.5 36.125 C-54.72754651 31.21841453 -46.47906257 31.64593289 -39.25 31.4375 C-37.40091768 31.37739843 -35.55194692 31.31373358 -33.703125 31.24609375 C-32.89520508 31.22216553 -32.08728516 31.1982373 -31.25488281 31.17358398 C-30.51077148 31.11630127 -29.76666016 31.05901855 -29 31 C-28.29327148 30.94634277 -27.58654297 30.89268555 -26.85839844 30.83740234 C-24.74044247 30.10991542 -24.74044247 30.10991542 -23.69140625 27.56323242 C-23.31886719 26.50467041 -22.94632813 25.4461084 -22.5625 24.35546875 C-21.93214844 22.62780273 -21.93214844 22.62780273 -21.2890625 20.86523438 C-20.65097656 19.04475586 -20.65097656 19.04475586 -20 17.1875 C-19.1559393 14.80238908 -18.30212971 12.42070045 -17.4375 10.04296875 C-17.06496094 8.98102295 -16.69242188 7.91907715 -16.30859375 6.82495117 C-14.91188588 3.80978201 -13.54860278 2.10987377 -11 0 C-7.22426023 -1.25857992 -3.74622187 -1.30363032 0 0 Z M-6 28 C-6.39832031 29.04800781 -6.79664063 30.09601563 -7.20703125 31.17578125 C-7.74177173 32.55484879 -8.27695102 33.93374623 -8.8125 35.3125 C-9.07353516 36.00279297 -9.33457031 36.69308594 -9.60351562 37.40429688 C-11.35161147 41.87165292 -12.66848094 44.83424047 -17 47 C-19.8754532 47.39315079 -22.74111846 47.74649025 -25.625 48.0625 C-26.42679688 48.15337891 -27.22859375 48.24425781 -28.0546875 48.33789062 C-30.03607868 48.56197653 -32.01799305 48.7814275 -34 49 C-30.42504521 52.66245369 -26.73315119 55.86154251 -22.671875 58.9609375 C-20.24877424 61.91621459 -20.17791674 64.21630398 -20 68 C-20.55859375 71.74609375 -20.55859375 71.74609375 -21.4375 75.4375 C-21.72496094 76.67371094 -22.01242188 77.90992188 -22.30859375 79.18359375 C-22.53675781 80.11300781 -22.76492187 81.04242188 -23 82 C-19.71538054 80.78808868 -17.06907817 79.43509559 -14.25 77.375 C-10.59381151 75.09244494 -7.76673686 74.14857381 -3.4453125 74.359375 C0.8062722 75.47320869 4.16257595 77.95068675 7.71484375 80.46875 C9.81845283 82.18555496 9.81845283 82.18555496 12 82 C11.855625 81.39414063 11.71125 80.78828125 11.5625 80.1640625 C8.19004525 64.94117647 8.19004525 64.94117647 12 58.75 C14.84034005 55.87691828 18.12935609 53.52073074 21.42578125 51.19921875 C21.94527344 50.80347656 22.46476562 50.40773438 23 50 C23 49.67 23 49.34 23 49 C21.83082031 48.90203125 20.66164062 48.8040625 19.45703125 48.703125 C17.90876596 48.55299018 16.3605933 48.40189795 14.8125 48.25 C14.04357422 48.188125 13.27464844 48.12625 12.48242188 48.0625 C7.55235849 47.55468231 4.44399872 46.84330291 1 43 C-0.35938708 40.4978528 -1.35337221 37.92745964 -2.3125 35.25 C-2.57611328 34.55261719 -2.83972656 33.85523438 -3.11132812 33.13671875 C-3.75444826 31.42952712 -4.37912508 29.71540698 -5 28 C-5.33 28 -5.66 28 -6 28 Z " fill="#000000" transform="translate(149,151)"/>
<path d="M0 0 C5.52332556 5.2074491 7.65528183 11.89931023 10.3125 18.875 C10.76689453 20.0403125 11.22128906 21.205625 11.68945312 22.40625 C12.8032787 25.26702305 13.90638641 28.13145315 15 31 C15.88353149 31.03758423 15.88353149 31.03758423 16.78491211 31.07592773 C19.50258671 31.19332361 22.22003342 31.31538715 24.9375 31.4375 C26.32678711 31.49647461 26.32678711 31.49647461 27.74414062 31.55664062 C45.50728668 32.36688939 45.50728668 32.36688939 50 37 C51.12887908 39.25775815 51.26390612 40.73756925 51.375 43.25 C51.42398438 43.99765625 51.47296875 44.7453125 51.5234375 45.515625 C50.18675006 51.8599027 43.8388206 55.97122828 38.9375 59.6875 C38.32583984 60.15994141 37.71417969 60.63238281 37.08398438 61.11914062 C34.07522569 63.43832435 31.04545589 65.72919872 28 68 C28.68321582 74.92749062 30.35220107 81.28216099 32.359375 87.93359375 C33.9030732 93.40751206 34.19680846 97.41084376 33 103 C31.00571345 106.08792757 29.59625053 107.64439495 25.93969727 108.45898438 C17.6147783 108.93170892 12.48615458 105.16818167 5.875 100.5 C4.823125 99.78457031 3.77125 99.06914063 2.6875 98.33203125 C0.11015296 96.57474918 -2.45074245 94.79767599 -5 93 C-9.43028588 95.35660253 -13.76770412 97.73882144 -17.84375 100.67578125 C-18.75447266 101.32836914 -18.75447266 101.32836914 -19.68359375 101.99414062 C-20.90388305 102.87983447 -22.11480735 103.77856364 -23.31640625 104.68945312 C-27.57525153 107.6959628 -30.74435374 108.49781553 -35.953125 108.36621094 C-39.86182729 107.66689636 -41.42888854 106.02105596 -44 103 C-45.14097956 97.99500261 -44.90868682 94.33185168 -43.56640625 89.41015625 C-43.24736328 88.21455078 -42.92832031 87.01894531 -42.59960938 85.78710938 C-42.08624023 83.94342773 -42.08624023 83.94342773 -41.5625 82.0625 C-41.22412109 80.80630859 -40.88574219 79.55011719 -40.53710938 78.25585938 C-39.70327063 75.16713275 -38.85726887 72.08229003 -38 69 C-39.95680115 67.33150497 -41.91503486 65.66477328 -43.875 64 C-44.46055664 63.50250244 -45.04611328 63.00500488 -45.64941406 62.49243164 C-50.07819299 58.7445865 -54.58747011 55.11520464 -59.171875 51.55859375 C-62.01010687 49.13881914 -61.99291604 48.08500755 -62.3125 44.25 C-62.27266563 39.8761865 -60.80627251 37.3840345 -58 34 C-49.06483688 29.53241844 -34.79361399 31.9136704 -25 32 C-24.84160645 31.41669922 -24.68321289 30.83339844 -24.52001953 30.23242188 C-22.8647077 24.24388387 -20.75758477 18.43225697 -18.5625 12.625 C-18.13022095 11.44768311 -18.13022095 11.44768311 -17.68920898 10.24658203 C-15.85882738 5.48605388 -14.11695829 1.39725716 -9.1875 -0.8125 C-5.82660858 -1.10057641 -3.28055138 -0.863303 0 0 Z M-6 28 C-6.38671875 29.03640625 -6.7734375 30.0728125 -7.171875 31.140625 C-7.69735694 32.51063149 -8.22342989 33.88041139 -8.75 35.25 C-9.00265625 35.93191406 -9.2553125 36.61382812 -9.515625 37.31640625 C-11.06204784 41.29844506 -12.34675961 44.54848342 -16 47 C-19.06380404 47.74468496 -22.11078331 48.01455875 -25.25 48.25 C-26.09046875 48.32734375 -26.9309375 48.4046875 -27.796875 48.484375 C-29.86319352 48.67222214 -31.93147395 48.83826339 -34 49 C-31.05486574 52.0223668 -28.09111379 54.74290294 -24.75 57.3125 C-21.79504247 59.90995794 -21.04642312 60.85340067 -19.8125 64.75 C-19.64601198 69.22765154 -21.02596717 73.36383932 -22.40625 77.58203125 C-23.25691028 80.11816836 -23.25691028 80.11816836 -22 83 C-20.85724609 82.13375 -20.85724609 82.13375 -19.69140625 81.25 C-9.22376447 73.72270703 -9.22376447 73.72270703 -3.3046875 74.25390625 C0.80907796 75.58565066 4.20944921 77.98391337 7.71484375 80.46875 C9.81845283 82.18555496 9.81845283 82.18555496 12 82 C11.855625 81.39414063 11.71125 80.78828125 11.5625 80.1640625 C8.25938889 65.25418598 8.25938889 65.25418598 11.4375 59.3125 C14.5492809 56.50430748 17.80628752 53.95017378 21.171875 51.453125 C21.77515625 50.97359375 22.3784375 50.4940625 23 50 C23 49.67 23 49.34 23 49 C21.81921875 48.86722656 20.6384375 48.73445313 19.421875 48.59765625 C17.86456738 48.4194102 16.30727658 48.24101707 14.75 48.0625 C13.97269531 47.97548828 13.19539063 47.88847656 12.39453125 47.79882812 C11.64042969 47.71181641 10.88632813 47.62480469 10.109375 47.53515625 C9.41811523 47.456604 8.72685547 47.37805176 8.01464844 47.29711914 C5.93596275 46.99055582 3.99676096 46.66163904 2 46 C0.9140625 43.86328125 0.9140625 43.86328125 0 41 C-0.63808594 39.35064453 -0.63808594 39.35064453 -1.2890625 37.66796875 C-1.72992188 36.51941406 -2.17078125 35.37085938 -2.625 34.1875 C-3.07101563 33.02605469 -3.51703125 31.86460938 -3.9765625 30.66796875 C-4.31429687 29.78753906 -4.65203125 28.90710938 -5 28 C-5.33 28 -5.66 28 -6 28 Z " fill="#000000" transform="translate(149,12)"/>
<path d="M0 0 C5.76511831 2.41691499 8.87941126 6.9564694 11.65625 12.4140625 C13.41228227 18.07593623 13.14472764 23.54017354 10.96868896 29.07159424 C8.01409901 34.34500761 3.31925299 38.41762186 -0.9609375 42.625 C-2.02172028 43.68406923 -3.08161204 44.7440316 -4.14065552 45.80484009 C-6.35379227 48.01633 -8.57514373 50.21909462 -10.80322266 52.41552734 C-13.65379069 55.22632285 -16.48626894 58.05454379 -19.31326103 60.88902855 C-21.4967941 63.0756348 -23.68785698 65.25456279 -25.88144302 67.43107986 C-26.92870864 68.47133428 -27.97404987 69.51352989 -29.0173912 70.55772018 C-30.47679451 72.01531967 -31.94561666 73.46271266 -33.41748047 74.90771484 C-34.25004364 75.73185883 -35.08260681 76.55600281 -35.94039917 77.40512085 C-40.03199919 80.82525644 -43.77237248 81.73220213 -49.03125 81.8515625 C-49.98386719 81.89152344 -50.93648438 81.93148437 -51.91796875 81.97265625 C-61.91381709 80.34277448 -68.5258484 73.95621956 -75.33276367 66.91210938 C-76.79098017 65.4039994 -78.26749874 63.91585024 -79.74804688 62.4296875 C-86.38826162 55.69093787 -91.36089397 50.42635649 -91.65625 40.6640625 C-91.57763306 34.73285103 -89.97910826 30.25158523 -85.91796875 25.87890625 C-80.40288074 20.99085667 -75.27661347 19.94218843 -68.12109375 20.10546875 C-60.24632149 20.98044345 -55.49244108 25.79191807 -50.34375 31.4140625 C-45.92666285 27.80460029 -41.83575673 23.9704695 -37.83984375 19.90234375 C-37.34988922 19.40451385 -36.85993469 18.90668396 -36.35513306 18.39376831 C-34.31111396 16.3132998 -32.27008416 14.23009495 -30.23852539 12.13745117 C-28.7374799 10.5938669 -27.22696162 9.06007264 -25.71484375 7.52734375 C-24.82724365 6.61766846 -23.93964355 5.70799316 -23.02514648 4.77075195 C-16.20088978 -1.22711292 -8.69479209 -2.17369802 0 0 Z M-12.09294128 17.74279785 C-12.67868423 18.36456909 -13.26442719 18.98634033 -13.86791992 19.62695312 C-14.53929489 20.32767944 -15.21066986 21.02840576 -15.90238953 21.75036621 C-16.61909317 22.51594849 -17.33579681 23.28153076 -18.07421875 24.0703125 C-19.61450465 25.66606926 -21.15554429 27.26109878 -22.69726562 28.85546875 C-25.11810722 31.38162837 -27.53129409 33.91410929 -29.9309082 36.46044922 C-32.25029344 38.91307219 -34.59719427 41.33653006 -36.94921875 43.7578125 C-37.65580124 44.52339478 -38.36238373 45.28897705 -39.09037781 46.07775879 C-42.59849085 49.65525721 -44.99632847 51.88520719 -50.14672852 52.06811523 C-53.51818789 51.75175633 -55.60991758 51.2416982 -57.890625 48.60546875 C-58.42558594 48.02345703 -58.96054687 47.44144531 -59.51171875 46.84179688 C-60.03378906 46.22626953 -60.55585938 45.61074219 -61.09375 44.9765625 C-64.98250065 40.335057 -64.98250065 40.335057 -70.109375 37.37890625 C-72.55173997 37.15812257 -72.55173997 37.15812257 -74.34375 39.4140625 C-74.05507931 45.05681484 -68.29828122 48.97790855 -64.57080078 52.68798828 C-63.09846433 54.15935128 -61.64874686 55.65073523 -60.19921875 57.14453125 C-58.80896484 58.53865234 -58.80896484 58.53865234 -57.390625 59.9609375 C-56.11977051 61.24242676 -56.11977051 61.24242676 -54.82324219 62.54980469 C-51.89554927 64.75105155 -50.91691801 64.89609979 -47.34375 64.4140625 C-45.04590356 62.85941492 -45.04590356 62.85941492 -42.93652344 60.62207031 C-42.0992572 59.7941095 -41.26199097 58.96614868 -40.39935303 58.11309814 C-39.06472015 56.75387238 -39.06472015 56.75387238 -37.703125 55.3671875 C-36.78033752 54.44444031 -35.85755005 53.52169312 -34.90679932 52.57098389 C-32.9556446 50.61817666 -31.01329355 48.6571405 -29.07714844 46.68945312 C-26.59680411 44.16943143 -24.09918112 41.667441 -21.59518051 39.17094803 C-19.206427 36.78600471 -16.83010822 34.38886387 -14.453125 31.9921875 C-13.55527283 31.09413391 -12.65742065 30.19608032 -11.73236084 29.27081299 C-10.90770325 28.43024353 -10.08304565 27.58967407 -9.23339844 26.72363281 C-8.50457458 25.98638977 -7.77575073 25.24914673 -7.02484131 24.48956299 C-5.31059748 22.3731319 -4.5364505 21.12515609 -4.34375 18.4140625 C-5.33375 17.4240625 -5.33375 17.4240625 -6.34375 16.4140625 C-10.17898611 16.01079872 -10.17898611 16.01079872 -12.09294128 17.74279785 Z " fill="#000000" transform="translate(388.34375,120.5859375)"/>
<path d="M0 0 C2.8100346 1.79363911 4.50940468 3.01880935 6 6 C6.41204834 10.63554388 5.87454146 13.30416098 3 17 C0.40855385 19.11154871 -1.77388571 19.1350172 -5 18.9375 C-8.11587241 18.43175205 -8.98745825 18.01066049 -11.5 15.875 C-13.37303469 12.28501684 -13.43667288 10.00283472 -13 6 C-10.8474136 -0.12659206 -5.96508969 -0.97673983 0 0 Z " fill="#000000" transform="translate(54,346)"/>
</svg>
